<?xml version="1.0" encoding="UTF-8" standalone="no"?>
<!-- Created with Inkscape (http://www.inkscape.org/) -->

<svg
   width="55.000004mm"
   height="15mm"
   viewBox="0 0 55.000004 15"
   version="1.1"
   id="svg1"
   xmlns="http://www.w3.org/2000/svg"
   xmlns:svg="http://www.w3.org/2000/svg">
  <defs
     id="defs1" />
  <g
     id="layer1">
    <g
       id="g1"
       transform="translate(-0.59605479,-0.03870525)">
      <path
         fill="#5b8a8f"
         opacity="1"
         stroke="none"
         d="M 45.437965,10.667144 C 44.613147,8.7675915 43.828433,6.9601485 43.043721,5.1527005 c -0.0796,0.0046 -0.159195,0.0093 -0.238792,0.01392 0,2.354109 0,4.708215 0,7.0623305 -0.125857,0.04641 -0.251716,0.09283 -0.377573,0.139239 -0.162502,-0.240006 -0.463365,-0.478313 -0.466321,-0.72027 -0.03319,-2.7166705 -0.03082,-5.4340095 -0.0024,-8.1507935 0.0024,-0.240036 0.255461,-0.477449 0.392091,-0.716077 0.289764,0.196909 0.722628,0.328989 0.845977,0.601285 0.779158,1.71995 1.485135,3.472928 2.225518,5.21064 0.237255,0.556847 0.505593,1.10045 0.999945,1.6069895 0,-2.4628185 0,-4.9256365 0,-7.3884555 0.105461,-0.03409 0.210926,-0.06819 0.316387,-0.102288 0.157863,0.253762 0.450162,0.506019 0.453016,0.761511 0.03242,2.899677 0.02058,5.799852 0.02058,8.6971795 -1.462109,0.384146 -1.306211,-0.835557 -1.774169,-1.500777 z"
         id="path3"
         style="stroke-width:0.264583" />
      <path
         fill="#578489"
         opacity="1"
         stroke="none"
         d="m 3.2616561,3.1835957 c 1.887425,-0.8507414 3.339654,-0.348258 3.647462,1.218335 0.07462,0.37978 -0.09852,0.808241 -0.157732,1.214318 -0.129902,-0.0039 -0.259805,-0.0079 -0.389709,-0.0118 -0.07405,-0.309184 -0.0538,-0.704638 -0.241521,-0.909839 -0.407036,-0.444936 -0.918092,-1.091951 -1.390983,-1.095637 -0.470983,-0.0037 -1.326394,0.650399 -1.356738,1.064218 -0.143813,1.961227 -0.151299,3.946279 0.01199,5.9045503 0.03269,0.392076 1.002578,0.949317 1.573026,0.991844 0.718088,0.05353 1.266508,-0.471737 1.217587,-1.385226 -0.04958,-0.9256823 0.243143,-1.9835533 -1.37847,-2.0385143 0.06516,-0.11362 0.130309,-0.22724 0.195464,-0.340855 0.598753,-0.02917 1.197508,-0.05834 1.870351,-0.09112 0.114839,1.62574 0.221219,3.1317783 0.324851,4.5988633 -0.924376,0 -1.873547,-0.0052 -2.822636,0.0016 -0.960246,0.0067 -1.764533,-0.419026 -1.821472,-1.362295 -0.12651,-2.0957463 -0.09978,-4.2045493 -0.03618,-6.3050213 0.01422,-0.469609 0.437053,-0.92684 0.754709,-1.453287 z"
         id="path4"
         style="stroke-width:0.264583" />
      <path
         fill="#59868b"
         opacity="1"
         stroke="none"
         d="m 22.395241,4.7524645 c 0.145137,-0.526873 0.199377,-0.980739 0.392808,-1.364435 0.153681,-0.304853 0.477629,-0.52387 0.725983,-0.780995 0.255238,0.251444 0.654769,0.460981 0.741973,0.761228 0.513517,1.76817 0.971257,3.553272 1.41337,5.341183 0.277111,1.120651 0.493869,2.2562295 0.777928,3.5713145 -1.507461,-0.264837 -0.639051,-2.5741525 -2.72198,-2.233065 -1.547083,0.253336 -1.963598,1.11746 -2.3348,2.422681 -0.198112,-0.123044 -0.396222,-0.246086 -0.594334,-0.369131 0.522738,-2.4151645 1.045475,-4.8303315 1.599052,-7.3487805 m 0.231487,2.775852 c -0.104318,0.586999 -0.208632,1.173998 -0.351941,1.980406 0.98775,-0.116477 1.779497,-0.209844 2.660367,-0.313716 -0.445871,-1.727367 -0.858391,-3.325532 -1.270911,-4.923698 -0.09009,0.0013 -0.180181,0.0024 -0.270266,0.0037 -0.245936,1.011145 -0.491871,2.02229 -0.767249,3.253308 z"
         id="path5"
         style="stroke-width:0.264583" />
      <path
         fill="#58858b"
         opacity="1"
         stroke="none"
         d="m 15.149661,9.8431925 c -1.6e-5,-2.368582 -1.6e-5,-4.607153 -1.6e-5,-6.81055 2.246064,-0.582165 3.755845,-0.222335 4.368326,0.978001 0.693669,1.359445 0.235842,2.862162 -1.271749,4.021039 0.490395,1.342046 0.98996,2.7091825 1.489523,4.0763135 -0.129257,0.06989 -0.258512,0.13979 -0.387768,0.209682 -1.552231,-1.012899 -0.835999,-3.9160575 -3.507931,-4.5860565 0,1.751187 0,3.1416615 0,4.5321345 -0.201914,0.0013 -0.403828,0.0027 -0.605742,0.004 -0.02821,-0.764865 -0.05642,-1.529723 -0.08464,-2.4246015 m 3.73938,-5.258231 c -0.632346,-1.237189 -1.692897,-1.142712 -2.84598,-1.010184 0,1.230894 0,2.351569 0,3.458567 2.466192,0.37483 2.913335,0.01752 2.84598,-2.448383 z"
         id="path6"
         style="stroke-width:0.264583" />
      <path
         fill="#58858b"
         opacity="1"
         stroke="none"
         d="m 37.723987,5.5607019 c 0.0051,1.738939 0.139669,3.371924 -0.02418,4.9743881 -0.147044,1.438103 -3.063798,2.481173 -4.189142,1.576211 -0.214868,-0.172792 -0.28429,-0.623541 -0.287269,-0.94728 -0.0227,-2.4685711 0.006,-4.9376651 -0.02275,-7.4061141 -0.0092,-0.791593 0.297852,-1.083138 1.083741,-1.117703 2.564506,-0.112794 3.387379,0.532776 3.439602,2.920498 m -0.637871,2.546646 c -0.05619,-0.783601 -0.134591,-1.566357 -0.164216,-2.350961 -0.07567,-2.004202 -0.794097,-2.550694 -2.80506,-2.097272 0,2.561441 0,5.123386 0,7.6704531 2.420176,0.308573 2.938918,-0.137213 2.968731,-2.4542591 0.0024,-0.175321 5.29e-4,-0.350692 5.29e-4,-0.767961 z"
         id="path7"
         style="stroke-width:0.264583" />
      <path
         fill="#568187"
         opacity="1"
         stroke="none"
         d="m 51.430967,11.565733 c 0.851496,0.06418 1.57947,0.12836 2.307442,0.19254 -0.01979,0.165666 -0.0396,0.33133 -0.05941,0.496999 -1.494559,0 -2.989122,0 -4.720857,0 0,-2.8358633 -0.0041,-5.6395363 0.0027,-8.4431743 0.0019,-0.767342 0.331002,-1.052143 1.163291,-0.978834 1.185818,0.104446 2.38769,0.02656 3.582705,0.02656 0.0085,0.219202 0.01701,0.438402 0.02553,0.657601 -1.18595,0.397153 -2.464065,0.08508 -3.818401,0.180126 0,1.03719 0,2.100331 0,3.305151 0.980224,0.114596 1.981454,0.231653 2.982685,0.348702 -0.0067,0.151858 -0.01347,0.30371 -0.02019,0.455562 -0.959014,0.05975 -1.918023,0.119494 -2.983402,0.18587 0,1.138529 0,2.2553543 0,3.5089633 0.478798,0.02164 0.946584,0.04279 1.53789,0.06394 z"
         id="path8"
         style="stroke-width:0.264583" />
      <path
         fill="#58858b"
         opacity="1"
         stroke="none"
         d="m 8.8070761,5.3515003 c 9e-4,-2.584627 9.53e-4,-2.593319 2.4172759,-2.578047 0.814798,0.0052 1.629237,0.0667 2.443841,0.10247 -0.0034,0.194956 -0.0067,0.389909 -0.01008,0.584864 -0.644822,0.04063 -1.289143,0.09738 -1.934606,0.117401 -0.656004,0.02035 -1.31313,0.0045 -2.0376879,0.0045 0,1.067223 0,2.153195 0,3.309996 1.0134509,0.120523 1.9928549,0.236998 2.9722589,0.353467 -0.02248,0.165793 -0.04496,0.331581 -0.06744,0.497375 -0.938234,0 -1.876466,0 -2.8928259,0 0,1.296125 0,2.4185317 0,3.7808607 1.3166789,0 2.5881429,0 3.8596069,0 -0.0015,0.158089 -0.003,0.316174 -0.0044,0.474263 -1.433593,0.577977 -2.954807,0.137178 -4.7458919,0.272272 0,-2.3447427 0,-4.5673057 -2.3e-5,-6.9194147 z"
         id="path9"
         style="stroke-width:0.264583" />
      <path
         fill="#5a888e"
         opacity="1"
         stroke="none"
         d="m 27.835553,6.4677356 c 0,-1.319982 0,-2.508808 0,-3.697636 0.206375,5.29e-4 0.41275,0.0011 0.619125,0.0013 0,2.864565 0,5.729132 0,8.6552044 1.366322,0.08704 2.410508,0.153564 3.454699,0.220088 -0.01238,0.217033 -0.02474,0.43407 -0.03713,0.651108 -1.187608,0 -2.377948,0.03944 -3.559899,-0.04231 C 28.134053,12.24316 27.868551,11.669483 27.85891,11.348988 27.8113,9.7667736 27.83621,8.1823746 27.83555,6.4675966 Z"
         id="path10"
         style="stroke-width:0.264583" />
      <path
         fill="#59868d"
         opacity="1"
         stroke="none"
         d="m 40.129457,5.706333 c -0.01656,2.241032 -0.01656,4.376812 -0.01656,6.512587 -0.122277,0.04167 -0.244549,0.08334 -0.366823,0.125007 -0.149043,-0.229981 -0.425413,-0.458681 -0.427747,-0.690139 -0.02824,-2.801279 -0.02355,-5.603028 0.0021,-8.404386 0.0019,-0.189733 0.241152,-0.377283 0.694031,-0.515919 0.04381,0.955863 0.08763,1.911723 0.11489,2.97285 z"
         id="path11"
         style="stroke-width:0.264583" />
    </g>
  </g>
</svg>
