<?xml version="1.0" encoding="UTF-8" standalone="no"?>
<!-- Created with Inkscape (http://www.inkscape.org/) -->

<svg
   width="50"
   height="90"
   viewBox="0 0 50 90"
   version="1.1"
   id="svg1"
   xmlns="http://www.w3.org/2000/svg"
   xmlns:svg="http://www.w3.org/2000/svg">
  <defs
     id="defs1" />
  <g
     id="layer1">
    <path
       fill="#5a888e"
       opacity="1"
       stroke="none"
       d="m 23.21604,3.5262044 c -0.486123,2.1466935 -1.239262,4.3127239 -2.097968,6.4360679 -1.804922,4.4631047 -3.659949,8.9041037 -0.991633,13.9592387 3.853451,-3.226575 7.238296,-6.490907 11.057469,-9.125648 3.185542,-2.1976 6.741229,-4.094628 10.407863,-5.2596307 1.842795,-0.5855095 5.15368,0.06395 6.239739,1.4122447 1.139174,1.414253 1.095122,4.581969 0.380395,6.552539 -3.341479,9.21276 -16.001408,15.457975 -25.554825,12.693091 -2.061551,-0.596638 -3.157231,-0.232662 -4.271344,1.32762 -5.43253,7.608031 -9.9168564,15.680474 -12.2230679,24.822822 -0.2543256,1.008217 -0.691452,2.135001 -0.4667136,3.067751 0.6124986,2.542056 0.8282959,5.767658 2.5016919,7.325974 2.4074776,2.241899 5.9710006,1.224461 8.2302916,-0.979025 4.356939,-4.249323 8.812723,-8.546598 12.33831,-13.46181 4.559159,-6.356196 8.181705,-13.378685 12.38011,-20.00494 0.658849,-1.03984 2.230381,-1.501412 3.379895,-2.230372 -0.127834,1.242917 0.101894,2.67413 -0.438283,3.699913 -6.031491,11.45348 -12.181787,22.844404 -18.563524,34.651754 0.07676,0.609991 0.416845,0.820411 0.756993,1.030824 4.820881,-4.154724 9.598015,-8.362368 14.501989,-12.416578 0.908512,-0.751088 2.328628,-0.883348 3.512603,-1.30122 -0.293205,1.124989 -0.279078,2.483412 -0.928241,3.338012 -5.159103,6.79187 -12.022423,11.504614 -19.356686,15.65241 -1.518873,0.858981 -2.792955,2.185789 -4.09135,3.392231 -2.562981,2.381478 -4.829255,5.167784 -7.668143,7.138567 C 10.141835,86.71266 7.1197559,87.3142 5.2335145,84.5768 3.3252974,81.807534 4.9505546,79.388252 7.2129949,77.88005 9.4452413,76.391973 12.026815,75.153023 14.62732,74.560395 c 3.412221,-0.777587 5.719028,-2.326088 6.875198,-6.1707 0.23347,-0.802369 0.245761,-1.167911 0.258053,-1.533453 -0.385888,0.179606 -0.771757,0.359249 -1.157637,0.538885 -3.121251,1.190374 -6.163347,3.026014 -9.382165,3.420825 C 6.3183778,71.41725 2.726603,68.354636 2.4822583,63.39889 2.2937175,59.575075 2.4476213,55.307767 3.9622107,51.912589 7.4535996,44.086252 11.872995,36.674518 15.895261,29.083645 16.407611,28.116713 17.44531,26.790737 17.144665,26.127301 13.426879,17.923163 16.227483,10.864365 20.540051,3.7806885 21.222082,3.5262051 22.06166,3.5262051 23.216054,3.5262051 m 2.677284,24.2336909 c 8.048172,0.127247 16.217006,-4.750782 19.039336,-11.508047 0.400876,-0.95978 0.565245,-2.349219 0.144456,-3.193688 -0.241469,-0.484578 -1.995088,-0.613532 -2.873784,-0.320426 -7.765216,2.590263 -13.605462,7.798593 -19.268252,13.930697 1.159968,0.465751 1.749286,0.702373 2.958233,1.091464 M 8.0185596,81.999751 c 2.3269884,1.169368 4.6323784,-0.0659 6.0034854,-4.281149 -1.91616,1.259061 -3.832323,2.518133 -6.0034854,4.281149 z"
       id="path2"
       style="stroke-width:0.787091" />
  </g>
</svg>
